<svg width="279" height="77" viewBox="0 0 279 77" fill="none" xmlns="http://www.w3.org/2000/svg">
<g clip-path="url(#clip0_1_206)">
<path d="M67.5328 71.2681C66.2338 71.7946 65.4191 72.2289 63.8819 72.2289C61.9604 72.6132 60.6154 72.0367 59.6547 70.6917C56.9646 72.2289 56.3881 71.2681 56.196 70.6917C54.6588 71.076 54.2745 69.9231 54.2745 69.9231C54.2745 69.9231 58.5018 49.171 77.7167 49.5553C96.9316 49.9396 100.006 69.9231 100.006 69.9231C98.0845 70.6917 97.3159 71.076 97.3159 71.4603L95.9709 71.6524L95.5866 70.8838C94.818 71.6524 93.2808 71.6524 93.2808 71.6524C91.3593 72.8053 87.9006 72.8053 86.7477 71.2681C86.191 71.7775 85.5376 72.1696 84.8262 72.421" fill="#727272"/>
<path d="M76.7559 76.0719C82.9109 76.0719 87.9006 71.2973 87.9006 65.4076C87.9006 59.5179 82.9109 54.7433 76.7559 54.7433C70.6009 54.7433 65.6113 59.5179 65.6113 65.4076C65.6113 71.2973 70.6009 76.0719 76.7559 76.0719Z" fill="#333333"/>
<path d="M76.7559 72.3403C80.7567 72.3403 84 69.2364 84 65.4076C84 61.5787 80.7567 58.4749 76.7559 58.4749C72.7552 58.4749 69.5119 61.5787 69.5119 65.4076C69.5119 69.2364 72.7552 72.3403 76.7559 72.3403Z" fill="#CFCECE"/>
<path d="M76.7559 71.2989C80.1561 71.2989 82.9124 68.6613 82.9124 65.4076C82.9124 62.1539 80.1561 59.5163 76.7559 59.5163C73.3558 59.5163 70.5995 62.1539 70.5995 65.4076C70.5995 68.6613 73.3558 71.2989 76.7559 71.2989Z" fill="#888989"/>
<path d="M76.7559 69.9116C79.3559 69.9116 81.4636 67.8951 81.4636 65.4076C81.4636 62.9201 79.3559 60.9036 76.7559 60.9036C74.156 60.9036 72.0483 62.9201 72.0483 65.4076C72.0483 67.8951 74.156 69.9116 76.7559 69.9116Z" fill="#727272"/>
<path d="M76.7559 68.336C78.4454 68.336 79.815 67.0249 79.815 65.4076C79.815 63.7903 78.4454 62.4792 76.7559 62.4792C75.0665 62.4792 73.6969 63.7903 73.6969 65.4076C73.6969 67.0249 75.0665 68.336 76.7559 68.336Z" fill="#333333"/>
<path d="M76.7559 62.2371C77.0743 62.2371 77.3324 61.979 77.3324 61.6607C77.3324 61.3423 77.0743 61.0842 76.7559 61.0842C76.4376 61.0842 76.1795 61.3423 76.1795 61.6607C76.1795 61.979 76.4376 62.2371 76.7559 62.2371Z" fill="#CFCECE"/>
<path d="M74.8344 62.7521C75.1528 62.7521 75.4109 62.494 75.4109 62.1756C75.4109 61.8573 75.1528 61.5992 74.8344 61.5992C74.5161 61.5992 74.258 61.8573 74.258 62.1756C74.258 62.494 74.5161 62.7521 74.8344 62.7521Z" fill="#CFCECE"/>
<path d="M73.4279 64.1586C73.7463 64.1586 74.0044 63.9005 74.0044 63.5822C74.0044 63.2638 73.7463 63.0057 73.4279 63.0057C73.1096 63.0057 72.8515 63.2638 72.8515 63.5822C72.8515 63.9005 73.1096 64.1586 73.4279 64.1586Z" fill="#CFCECE"/>
<path d="M72.9129 66.0801C73.2313 66.0801 73.4894 65.822 73.4894 65.5037C73.4894 65.1853 73.2313 64.9272 72.9129 64.9272C72.5946 64.9272 72.3365 65.1853 72.3365 65.5037C72.3365 65.822 72.5946 66.0801 72.9129 66.0801Z" fill="#CFCECE"/>
<path d="M73.4279 68.0016C73.7463 68.0016 74.0044 67.7435 74.0044 67.4252C74.0044 67.1068 73.7463 66.8487 73.4279 66.8487C73.1096 66.8487 72.8515 67.1068 72.8515 67.4252C72.8515 67.7435 73.1096 68.0016 73.4279 68.0016Z" fill="#CFCECE"/>
<path d="M74.8344 69.4081C75.1528 69.4081 75.4109 69.1501 75.4109 68.8317C75.4109 68.5133 75.1528 68.2552 74.8344 68.2552C74.5161 68.2552 74.258 68.5133 74.258 68.8317C74.258 69.1501 74.5161 69.4081 74.8344 69.4081Z" fill="#CFCECE"/>
<path d="M76.7559 69.9231C77.0743 69.9231 77.3324 69.665 77.3324 69.3467C77.3324 69.0283 77.0743 68.7702 76.7559 68.7702C76.4376 68.7702 76.1795 69.0283 76.1795 69.3467C76.1795 69.665 76.4376 69.9231 76.7559 69.9231Z" fill="#CFCECE"/>
<path d="M78.6774 69.4081C78.9958 69.4081 79.2539 69.1501 79.2539 68.8317C79.2539 68.5133 78.9958 68.2552 78.6774 68.2552C78.3591 68.2552 78.101 68.5133 78.101 68.8317C78.101 69.1501 78.3591 69.4081 78.6774 69.4081Z" fill="#CFCECE"/>
<path d="M80.084 68.0016C80.4023 68.0016 80.6604 67.7435 80.6604 67.4252C80.6604 67.1068 80.4023 66.8487 80.084 66.8487C79.7656 66.8487 79.5075 67.1068 79.5075 67.4252C79.5075 67.7435 79.7656 68.0016 80.084 68.0016Z" fill="#CFCECE"/>
<path d="M80.5989 66.0801C80.9173 66.0801 81.1754 65.822 81.1754 65.5037C81.1754 65.1853 80.9173 64.9272 80.5989 64.9272C80.2805 64.9272 80.0225 65.1853 80.0225 65.5037C80.0225 65.822 80.2805 66.0801 80.5989 66.0801Z" fill="#CFCECE"/>
<path d="M80.084 64.1586C80.4023 64.1586 80.6604 63.9005 80.6604 63.5822C80.6604 63.2638 80.4023 63.0057 80.084 63.0057C79.7656 63.0057 79.5075 63.2638 79.5075 63.5822C79.5075 63.9005 79.7656 64.1586 80.084 64.1586Z" fill="#CFCECE"/>
<path d="M78.6774 62.7521C78.9958 62.7521 79.2539 62.494 79.2539 62.1756C79.2539 61.8573 78.9958 61.5992 78.6774 61.5992C78.3591 61.5992 78.101 61.8573 78.101 62.1756C78.101 62.494 78.3591 62.7521 78.6774 62.7521Z" fill="#CFCECE"/>
<path d="M202.471 71.956C201.173 72.4787 200.358 72.9168 198.821 72.9168C196.899 73.3011 195.554 72.7246 194.593 71.3796C191.903 72.9168 191.327 71.956 191.135 71.3796C189.597 71.7639 189.213 70.611 189.213 70.611C189.213 70.611 193.44 49.8589 212.655 50.2432C231.87 50.6275 234.945 70.611 234.945 70.611C233.023 71.3796 232.255 71.7639 232.255 72.1482L230.91 72.3403L230.525 71.5717C229.757 72.3403 228.219 72.3403 228.219 72.3403C226.298 73.4932 222.839 73.4932 221.686 71.956C221.13 72.4654 220.476 72.8575 219.765 73.1089" fill="#727272"/>
<path d="M211.695 76.7598C217.85 76.7598 222.839 71.9852 222.839 66.0955C222.839 60.2058 217.85 55.4312 211.695 55.4312C205.54 55.4312 200.55 60.2058 200.55 66.0955C200.55 71.9852 205.54 76.7598 211.695 76.7598Z" fill="#333333"/>
<path d="M211.695 73.0282C215.695 73.0282 218.939 69.9243 218.939 66.0955C218.939 62.2666 215.695 59.1628 211.695 59.1628C207.694 59.1628 204.451 62.2666 204.451 66.0955C204.451 69.9243 207.694 73.0282 211.695 73.0282Z" fill="#CFCECE"/>
<path d="M211.695 71.9868C215.095 71.9868 217.851 69.3492 217.851 66.0955C217.851 62.8418 215.095 60.2042 211.695 60.2042C208.295 60.2042 205.538 62.8418 205.538 66.0955C205.538 69.3492 208.295 71.9868 211.695 71.9868Z" fill="#888989"/>
<path d="M211.695 70.5995C214.295 70.5995 216.402 68.583 216.402 66.0955C216.402 63.608 214.295 61.5915 211.695 61.5915C209.095 61.5915 206.987 63.608 206.987 66.0955C206.987 68.583 209.095 70.5995 211.695 70.5995Z" fill="#727272"/>
<path d="M211.695 69.0238C213.384 69.0238 214.754 67.7128 214.754 66.0955C214.754 64.4782 213.384 63.1671 211.695 63.1671C210.005 63.1671 208.636 64.4782 208.636 66.0955C208.636 67.7128 210.005 69.0238 211.695 69.0238Z" fill="#333333"/>
<path d="M211.695 62.925C212.013 62.925 212.271 62.667 212.271 62.3486C212.271 62.0302 212.013 61.7721 211.695 61.7721C211.376 61.7721 211.118 62.0302 211.118 62.3486C211.118 62.667 211.376 62.925 211.695 62.925Z" fill="#CFCECE"/>
<path d="M209.773 63.44C210.092 63.44 210.35 63.1819 210.35 62.8635C210.35 62.5452 210.092 62.2871 209.773 62.2871C209.455 62.2871 209.197 62.5452 209.197 62.8635C209.197 63.1819 209.455 63.44 209.773 63.44Z" fill="#CFCECE"/>
<path d="M208.367 64.8465C208.685 64.8465 208.943 64.5884 208.943 64.2701C208.943 63.9517 208.685 63.6936 208.367 63.6936C208.048 63.6936 207.79 63.9517 207.79 64.2701C207.79 64.5884 208.048 64.8465 208.367 64.8465Z" fill="#CFCECE"/>
<path d="M207.852 66.768C208.17 66.768 208.428 66.5099 208.428 66.1916C208.428 65.8732 208.17 65.6151 207.852 65.6151C207.533 65.6151 207.275 65.8732 207.275 66.1916C207.275 66.5099 207.533 66.768 207.852 66.768Z" fill="#CFCECE"/>
<path d="M208.367 68.6895C208.685 68.6895 208.943 68.4314 208.943 68.1131C208.943 67.7947 208.685 67.5366 208.367 67.5366C208.048 67.5366 207.79 67.7947 207.79 68.1131C207.79 68.4314 208.048 68.6895 208.367 68.6895Z" fill="#CFCECE"/>
<path d="M209.773 70.096C210.092 70.096 210.35 69.8379 210.35 69.5196C210.35 69.2012 210.092 68.9431 209.773 68.9431C209.455 68.9431 209.197 69.2012 209.197 69.5196C209.197 69.8379 209.455 70.096 209.773 70.096Z" fill="#CFCECE"/>
<path d="M211.695 70.611C212.013 70.611 212.271 70.3529 212.271 70.0346C212.271 69.7162 212.013 69.4581 211.695 69.4581C211.376 69.4581 211.118 69.7162 211.118 70.0346C211.118 70.3529 211.376 70.611 211.695 70.611Z" fill="#CFCECE"/>
<path d="M213.616 70.096C213.935 70.096 214.193 69.8379 214.193 69.5196C214.193 69.2012 213.935 68.9431 213.616 68.9431C213.298 68.9431 213.04 69.2012 213.04 69.5196C213.04 69.8379 213.298 70.096 213.616 70.096Z" fill="#CFCECE"/>
<path d="M215.023 68.6895C215.341 68.6895 215.599 68.4314 215.599 68.1131C215.599 67.7947 215.341 67.5366 215.023 67.5366C214.704 67.5366 214.446 67.7947 214.446 68.1131C214.446 68.4314 214.704 68.6895 215.023 68.6895Z" fill="#CFCECE"/>
<path d="M215.538 66.768C215.856 66.768 216.114 66.5099 216.114 66.1916C216.114 65.8732 215.856 65.6151 215.538 65.6151C215.219 65.6151 214.961 65.8732 214.961 66.1916C214.961 66.5099 215.219 66.768 215.538 66.768Z" fill="#CFCECE"/>
<path d="M215.023 64.8465C215.341 64.8465 215.599 64.5884 215.599 64.2701C215.599 63.9517 215.341 63.6936 215.023 63.6936C214.704 63.6936 214.446 63.9517 214.446 64.2701C214.446 64.5884 214.704 64.8465 215.023 64.8465Z" fill="#CFCECE"/>
<path d="M213.616 63.44C213.935 63.44 214.193 63.1819 214.193 62.8635C214.193 62.5452 213.935 62.2871 213.616 62.2871C213.298 62.2871 213.04 62.5452 213.04 62.8635C213.04 63.1819 213.298 63.44 213.616 63.44Z" fill="#CFCECE"/>
<path d="M63.0249 67.7826L54.1861 68.1669L22.6736 67.7826L1.51413 65.227C1.2 65.19 0.910705 65.0379 0.702064 64.8002C0.493424 64.5624 0.380219 64.2559 0.384292 63.9396V13.2122C0.380639 12.6505 0.485014 12.0934 0.691732 11.5712C2.85917 6.18721 8.23935 5.14192 11.5289 5.14192C14.9876 5.14192 70.7109 4.75762 70.7109 4.75762C78.589 -0.814709 82.432 -0.0461128 92.2316 0.146036C92.0471 0.3305 218.393 1.22207 228.754 1.29893C229.211 1.30158 229.668 1.33109 230.122 1.38732C234.549 1.94839 258.902 5.72989 263.437 9.56519C264.974 10.7181 266.127 14.9454 266.127 21.4784C267.856 28.684 270.354 46.4578 269.585 57.2182C271.123 60.6769 270.569 64.5737 269.777 67.0178C260.554 72.398 225.199 70.0922 225.199 70.0922C227.697 46.8421 196.953 45.6892 199.259 68.7471L90.118 68.3629C92.8081 47.9912 64.37 43.7639 63.0249 67.7826Z" fill="#E6ECEC"/>
<path d="M64.662 60.4809C64.662 60.5385 64.6275 60.5885 64.6121 60.6346C64.6121 60.5885 64.5813 60.5424 64.5621 60.4963C64.247 62.6906 63.171 64.885 63.6168 67.0793C63.4237 67.5812 63.262 68.0946 63.1325 68.6165L54.5704 68.5512L23.0579 68.1669L4.61158 65.4768L0.384298 64.7082L0 45.4933C0 45.4933 4.99588 45.4933 5.1765 45.3011V59.9044L64.662 60.4809Z" fill="#A4A5A6"/>
<path d="M89.5915 60.6999C90.2486 63.5937 89.5569 66.1531 88.4886 68.701L199.835 68.9355C198.682 66.6297 199.489 64.5007 199.835 62.0181L89.5915 60.6999Z" fill="#A4A5A6"/>
<path d="M229.042 62.0181H224.43C225.583 65.8611 225.199 67.014 225.007 69.3198H227.889L229.042 62.0181Z" fill="#A4A5A6"/>
<path d="M260.939 17.0552C270.162 18.2081 277.848 20.5139 278.232 25.894C276.783 22.9964 272.468 20.5139 269.393 21.2825C266.319 20.8982 260.939 20.8982 260.939 20.8982V17.0552Z" fill="#333333"/>
<path d="M269.393 21.2824C270.354 24.1647 273.044 25.3176 274.389 26.6626C274.773 30.1213 274.966 31.8506 275.926 33.58C277.656 33.3878 279.961 29.9292 278.232 25.894C276.503 22.2432 270.546 20.1295 269.393 21.2824Z" fill="#FEDF06"/>
<path fill-rule="evenodd" clip-rule="evenodd" d="M188.006 57.1913L188.721 53.1331H186.535L186.258 54.7279L185.82 53.1331H183.633L182.926 57.1875H185.113L185.405 55.5965L185.835 57.1913H188.006ZM174.521 53.1216L173.799 57.1798H177.2L177.392 56.123H176.185L176.712 53.1177L174.521 53.1216ZM180.347 51.7535L180.409 51.4384H179.571L179.341 52.5912H180.194L180.259 52.2723H179.875V52.1608H180.221L180.271 51.8764H179.936V51.7612L180.347 51.7535ZM178.699 51.4384H178.23L178.019 52.5912H178.587C178.762 52.5946 178.933 52.5421 179.075 52.4414C179.201 52.3397 179.287 52.1968 179.317 52.0379C179.406 51.6536 179.191 51.4499 178.699 51.4499V51.4384ZM178.626 51.8034H178.653C178.822 51.8034 178.899 51.8803 178.876 52.0263C178.858 52.0937 178.817 52.1526 178.76 52.1922C178.703 52.2317 178.633 52.2493 178.564 52.2415H178.537L178.626 51.8034ZM179.921 56.1306H179.537L179.348 57.1836H181.185C181.482 57.184 181.769 57.073 181.988 56.8723C182.219 56.6834 182.377 56.4197 182.434 56.1268L182.972 53.1254H180.785L180.301 55.7886C180.283 55.8797 180.236 55.9623 180.166 56.0241C180.097 56.0858 180.01 56.1232 179.917 56.1306H179.921ZM177.415 55.9615H179.606L180.105 53.1216H177.93L177.415 55.9615Z" fill="#6C747A"/>
<path fill-rule="evenodd" clip-rule="evenodd" d="M197.299 50.8734L198.206 45.7661H182.111L181.212 50.8734H197.299ZM194.071 69.1776L196.046 58.006H179.963L177.98 69.1737L194.071 69.1776Z" fill="#FBE03C"/>
<path fill-rule="evenodd" clip-rule="evenodd" d="M191.058 52.5912H192.088L192.291 51.4384H191.254L191.058 52.5912ZM189.013 52.5912H190.935L191.138 51.4384H189.217L189.013 52.5912ZM188.875 52.5912L189.079 51.4384H186.112L185.908 52.5912H188.875ZM197.145 51.4384L196.941 52.5912H197.007L197.21 51.4384H197.145ZM196.703 51.4384H196.588L196.388 52.5912H196.499L196.703 51.4384ZM195.835 52.5912H195.992L196.196 51.4384H196.031L195.827 52.5912H195.835ZM195.696 51.4384H195.481L195.281 52.5912H195.496L195.696 51.4384ZM195.193 51.4384H194.932L194.728 52.5912H194.989L195.193 51.4384ZM194.186 51.4384H193.821L193.625 52.5912H193.982L194.186 51.4384ZM194.186 52.5912H194.501L194.705 51.4384H194.39L194.186 52.5912ZM193.079 52.5912H193.494L193.698 51.4384H193.283L193.079 52.5912ZM192.964 52.5912L193.168 51.4384H192.418L192.226 52.5912H192.964ZM181.131 51.4384L180.928 52.5912H185.847L186.05 51.4384H181.131Z" fill="#34559D"/>
<path opacity="0.8" d="M22.8657 44.9168L5.18802 45.3011L5.95662 15.7101L260.746 16.863V21.0903L229.618 21.4746L229.234 46.454L146.226 45.3011L146.61 20.706H115.097L114.713 44.9168H55.1468V19.9374H23.6343L22.8657 44.9168Z" fill="#333333"/>
<path d="M5.31485 40.5781C2.90145 40.1131 0 40.1131 0 41.6503C0 43.1875 0.384298 54.3321 0.384298 54.3321L0.768597 53.1792C0.768597 45.8775 -0.622563 44.9168 5.1765 45.3011L5.31485 40.5781Z" fill="#333333"/>
<path opacity="0.8" d="M270.162 57.7908L261.323 54.7164V22.051L265.55 21.6667C269.393 35.5015 272.468 53.5635 270.162 57.7908Z" fill="#333333"/>
</g>
<rect x="223.339" y="20.7521" width="19.0356" height="49.1902" rx="1" fill="black"/>
<rect x="225.488" y="26.5746" width="15.0443" height="12.2474" rx="1" fill="#D9D9D9"/>
<rect x="242.375" y="20.7521" width="19.0357" height="49.1902" rx="1" fill="black"/>
<rect x="244.678" y="26.5746" width="15.0443" height="12.2474" rx="1" fill="#D9D9D9"/>
<path d="M240.76 47.8418L239.507 49.8807C239.491 49.9046 239.479 49.9333 239.471 49.965C239.462 49.9968 239.458 50.0309 239.458 50.0655C239.458 50.1 239.462 50.1341 239.471 50.1659C239.479 50.1976 239.491 50.2263 239.507 50.2502L240.76 52.2891M243.836 47.8418L245.09 49.8807C245.105 49.9046 245.117 49.9333 245.125 49.965C245.134 49.9968 245.138 50.0309 245.138 50.0655C245.138 50.1 245.134 50.1341 245.125 50.1659C245.117 50.1976 245.105 50.2263 245.09 50.2502L243.836 52.2891M242.298 54.6833V45.4476" stroke="white" stroke-linecap="round" stroke-linejoin="round"/>
<rect x="111.124" y="19.9835" width="19.0356" height="49.1902" rx="4" fill="black"/>
<rect x="113.273" y="25.806" width="15.0443" height="12.2474" rx="1" fill="#D9D9D9"/>
<rect x="130.16" y="19.9835" width="19.0357" height="49.1902" rx="4" fill="black"/>
<rect x="132.462" y="25.806" width="15.0443" height="12.2474" rx="1" fill="#D9D9D9"/>
<path d="M128.545 47.0732L127.291 49.1121C127.276 49.136 127.264 49.1647 127.256 49.1964C127.247 49.2282 127.243 49.2623 127.243 49.2969C127.243 49.3314 127.247 49.3655 127.256 49.3973C127.264 49.429 127.276 49.4577 127.291 49.4816L128.545 51.5205M131.621 47.0732L132.874 49.1121C132.89 49.136 132.902 49.1647 132.91 49.1964C132.919 49.2282 132.923 49.2623 132.923 49.2969C132.923 49.3314 132.919 49.3655 132.91 49.3973C132.902 49.429 132.89 49.4577 132.874 49.4816L131.621 51.5205M130.083 53.9147V44.679" stroke="white" stroke-linecap="round" stroke-linejoin="round"/>
<rect x="21.5826" y="19.2149" width="19.0356" height="49.1902" rx="1" fill="black"/>
<rect x="23.7317" y="25.0374" width="15.0443" height="12.2474" rx="1" fill="#D9D9D9"/>
<rect x="40.6182" y="19.2149" width="19.0357" height="49.1902" rx="1" fill="black"/>
<rect x="42.9209" y="25.0374" width="15.0443" height="12.2474" rx="1" fill="#D9D9D9"/>
<path d="M39.0037 46.3046L37.7499 48.3435C37.7346 48.3674 37.7224 48.3961 37.7141 48.4278C37.7057 48.4596 37.7014 48.4937 37.7014 48.5283C37.7014 48.5628 37.7057 48.5969 37.7141 48.6287C37.7224 48.6604 37.7346 48.6891 37.7499 48.713L39.0037 50.7519M42.0792 46.3046L43.3329 48.3435C43.3483 48.3674 43.3605 48.3961 43.3688 48.4278C43.3771 48.4596 43.3814 48.4937 43.3814 48.5283C43.3814 48.5628 43.3771 48.5969 43.3688 48.6287C43.3605 48.6604 43.3483 48.6891 43.3329 48.713L42.0792 50.7519M40.5414 53.1461V43.9104" stroke="white" stroke-linecap="round" stroke-linejoin="round"/>
<defs>
<clipPath id="clip0_1_206">
<rect width="278.843" height="76.7598" fill="white"/>
</clipPath>
</defs>
</svg>
